<svg width="116" height="21" viewBox="0 0 116 21" fill="none" xmlns="http://www.w3.org/2000/svg">
<g clip-path="url(#clip0_101_65)">
<path d="M113.763 20.9612C114.995 20.9612 115.994 19.9504 115.994 18.7036C115.994 17.4568 114.995 16.4461 113.763 16.4461C112.531 16.4461 111.532 17.4568 111.532 18.7036C111.532 19.9504 112.531 20.9612 113.763 20.9612Z" fill="white"/>
<path d="M45.3659 10.7274C44.9876 9.86767 44.4668 9.12995 43.809 8.51981C43.1511 7.90966 42.3726 7.43819 41.479 7.10539C40.5854 6.77813 39.6314 6.61172 38.6172 6.61172C37.603 6.61172 36.6545 6.77813 35.7555 7.10539C34.8564 7.43264 34.0833 7.90412 33.4255 8.51981C32.7676 9.12995 32.2468 9.86767 31.8685 10.7274C31.4902 11.5872 31.2983 12.5467 31.2983 13.6062C31.2983 14.6656 31.4902 15.6252 31.8685 16.4849C32.2468 17.3447 32.7676 18.0824 33.4255 18.6925C34.0833 19.3027 34.8618 19.7742 35.7555 20.107C36.6491 20.4398 37.603 20.6006 38.6172 20.6006C39.6314 20.6006 40.5799 20.4342 41.479 20.107C42.3726 19.7797 43.1511 19.3082 43.809 18.6925C44.4668 18.0824 44.9876 17.3447 45.3659 16.4849C45.7442 15.6252 45.9361 14.6656 45.9361 13.6062C45.9361 12.5467 45.7442 11.5872 45.3659 10.7274ZM38.5788 17.023C36.3421 17.023 35.1963 15.8693 35.1963 13.6006C35.1963 11.332 36.3366 10.1783 38.5788 10.1783C40.8211 10.1783 41.9614 11.332 41.9614 13.6006C41.9614 15.8693 40.8211 17.023 38.5788 17.023Z" fill="white"/>
<path d="M11.6063 4.33756C11.1677 4.82012 10.4659 4.92551 9.90126 4.6038C9.72583 4.50396 9.53395 4.41521 9.32562 4.33756C8.73901 4.12678 8.1853 4.02139 7.659 4.02139C7.35199 4.02139 7.03402 4.06022 6.71056 4.13233C6.38711 4.20443 6.0801 4.32092 5.78954 4.47623C5.49897 4.63154 5.26323 4.83676 5.08232 5.09192C4.9014 5.34707 4.81369 5.65768 4.81369 6.02377C4.81369 6.61172 5.03298 7.05547 5.46608 7.36608C5.89918 7.6767 6.44741 7.94295 7.10529 8.15927C7.76316 8.38114 8.47586 8.59746 9.23242 8.81933C9.98898 9.0412 10.7017 9.35182 11.3596 9.75119C12.0174 10.1561 12.5657 10.6941 12.9988 11.3708C13.4319 12.0475 13.6512 12.9517 13.6512 14.0832C13.6512 15.2147 13.4538 16.1022 13.0536 16.9065C12.6534 17.7108 12.1161 18.3764 11.4418 18.9089C10.762 19.4414 9.97801 19.8296 9.0844 20.0903C8.19078 20.3455 7.24783 20.4731 6.25005 20.4731C5.00557 20.4731 3.8488 20.2789 2.77975 19.8962C2.1767 19.6799 1.59558 19.3859 1.03638 19.0143C0.334646 18.5483 0.230483 17.5499 0.79516 16.9231L1.84228 15.7583C2.32472 15.2203 3.12514 15.1593 3.70078 15.5919C3.93104 15.7639 4.17774 15.9136 4.44637 16.0467C5.10425 16.3685 5.78954 16.5293 6.49127 16.5293C6.83665 16.5293 7.18204 16.4905 7.53291 16.4073C7.88377 16.3241 8.20175 16.2021 8.48135 16.0357C8.76094 15.8693 8.98572 15.6585 9.16115 15.4033C9.3311 15.1482 9.41882 14.8486 9.41882 14.4992C9.41882 13.9168 9.19953 13.4509 8.75546 13.1125C8.31139 12.7742 7.75768 12.4857 7.08884 12.2472C6.42 12.0087 5.69634 11.7702 4.91785 11.5317C4.13936 11.2932 3.4157 10.977 2.75234 10.5721C2.0835 10.1727 1.52979 9.64025 1.08572 8.98019C0.641655 8.32012 0.422363 7.45483 0.422363 6.37321C0.422363 5.2916 0.625208 4.41521 1.0309 3.63312C1.43659 2.84548 1.97934 2.19096 2.65914 1.65848C3.33895 1.12599 4.11743 0.732169 5.00557 0.465925C5.88822 0.199681 6.80376 0.0665588 7.74123 0.0665588C8.82673 0.0665588 9.87385 0.221868 10.8826 0.532486C11.3541 0.676701 11.8036 0.865291 12.2312 1.1038C13.0097 1.5309 13.1687 2.60142 12.5711 3.26149L11.6063 4.33201V4.33756Z" fill="white"/>
<path d="M18.0695 6.65611H18.3929C19.3797 6.65611 20.1801 7.46593 20.1801 8.46435H20.235C20.3611 8.2092 20.542 7.95405 20.7777 7.6989C21.0135 7.44375 21.293 7.21633 21.6165 7.0111C21.94 6.81142 22.3128 6.64502 22.7294 6.51744C23.1461 6.38986 23.5956 6.3233 24.0835 6.3233C25.1142 6.3233 25.942 6.48416 26.578 6.80587C27.2085 7.12758 27.7019 7.57132 28.0527 8.13709C28.4036 8.70286 28.6448 9.37402 28.7709 10.1395C28.897 10.9049 28.9628 11.7369 28.9628 12.6355V18.1767C28.9628 19.1751 28.1624 19.985 27.1756 19.985H26.6876C25.7008 19.985 24.9004 19.1751 24.9004 18.1767V13.462C24.9004 13.0792 24.8894 12.6799 24.862 12.2694C24.8346 11.859 24.7524 11.4762 24.6153 11.1323C24.4783 10.7829 24.2699 10.5 23.9903 10.2837C23.7107 10.0618 23.3105 9.95643 22.7842 9.95643C22.2579 9.95643 21.8358 10.0507 21.5123 10.2449C21.1889 10.439 20.9367 10.6941 20.7667 11.0103C20.5968 11.332 20.4817 11.6926 20.4268 12.0919C20.372 12.4968 20.3446 12.9128 20.3446 13.351V18.1767C20.3446 19.1751 19.5442 19.985 18.5574 19.985H18.0695C17.0826 19.985 16.2822 19.1751 16.2822 18.1767V8.4699C16.2822 7.47148 17.0826 6.66166 18.0695 6.66166V6.65611Z" fill="white"/>
<path d="M70.7873 17.5111C71.1217 17.7607 71.1546 18.2488 70.8586 18.5483C70.3049 19.1086 69.6579 19.5579 68.9124 19.9018C67.9201 20.3566 66.8894 20.5896 65.8203 20.5896C64.7513 20.5896 63.8577 20.4232 62.9586 20.0959C62.065 19.7686 61.2865 19.2972 60.6286 18.6815C59.9707 18.0713 59.4499 17.3336 59.0716 16.4739C58.6933 15.6141 58.5015 14.6545 58.5015 13.5951C58.5015 12.5357 58.6933 11.5761 59.0716 10.7163C59.4499 9.85659 59.9707 9.11887 60.6286 8.50873C61.2865 7.89859 62.065 7.42711 62.9586 7.09431C63.8522 6.76705 64.8061 6.60065 65.8203 6.60065C66.7578 6.60065 67.6131 6.76705 68.3806 7.09431C69.1481 7.42157 69.8005 7.89304 70.3323 8.50873C70.864 9.11887 71.2752 9.85659 71.5658 10.7163C71.8563 11.5761 71.9989 12.5357 71.9989 13.5951C71.9989 14.3051 71.4287 14.8819 70.727 14.8819H63.5178C63.0024 14.8819 62.6845 15.4422 62.9312 15.897C63.1121 16.2298 63.3423 16.5182 63.6274 16.7623C64.1702 17.2282 64.839 17.4612 65.6339 17.4612C66.3028 17.4612 66.8675 17.3114 67.328 17.0064L67.9529 16.5959C68.4628 16.2631 69.1262 16.2797 69.6141 16.6458L70.7873 17.5167V17.5111ZM67.1745 12.0808C67.6185 12.0808 67.9584 11.6426 67.8214 11.2155C67.7117 10.8772 67.5253 10.5721 67.2622 10.2948C66.7907 9.80112 66.1876 9.55152 65.4475 9.55152C64.998 9.55152 64.5978 9.62363 64.2524 9.77339C63.907 9.9176 63.6164 10.1062 63.3697 10.3336C63.123 10.561 62.9366 10.8273 62.7996 11.1268V11.1379C62.5967 11.5761 62.9147 12.0753 63.3917 12.0753H67.169L67.1745 12.0808Z" fill="white"/>
<path d="M75.7709 0.116486H77.3224C78.0022 0.116486 78.5504 0.671161 78.5504 1.35896V19.0309H74.5483V1.35896C74.5483 0.671161 75.0966 0.116486 75.7764 0.116486H75.7709Z" fill="white"/>
<path d="M90.0908 18.7536H90.0359C89.5919 19.4525 88.9998 19.9572 88.2597 20.2623C87.5196 20.5674 86.7411 20.7227 85.9242 20.7227C85.3211 20.7227 84.7345 20.6395 84.1753 20.4675C83.6162 20.2956 83.1227 20.0404 82.6951 19.6965C82.2675 19.3526 81.9276 18.9311 81.6809 18.4263C81.4342 17.9216 81.3081 17.3391 81.3081 16.6735C81.3081 15.9192 81.4452 15.2813 81.7193 14.7599C81.9934 14.2385 82.3662 13.8059 82.8377 13.462C83.3091 13.1181 83.8464 12.8574 84.4495 12.6632C85.0525 12.4746 85.683 12.336 86.3299 12.2472C86.9768 12.1585 87.6292 12.103 88.2761 12.0864C88.5173 12.0808 88.7531 12.0753 88.9778 12.0697C89.6796 12.0586 90.0688 11.2377 89.6357 10.6775C89.5425 10.561 89.4329 10.4501 89.3123 10.3447C88.8079 9.92314 88.2048 9.71236 87.5141 9.71236C86.8233 9.71236 86.2531 9.85103 85.7159 10.1284C85.3979 10.2892 85.1019 10.4889 84.8277 10.7219C84.4878 11.0103 83.9835 10.9881 83.671 10.6609L82.9309 8.40888C82.9309 8.40888 84.0712 7.71553 84.7455 7.48257C85.7433 7.13312 86.774 6.95563 87.8375 6.95563C89.0107 6.95563 89.9756 7.10539 90.7322 7.39937C91.4887 7.69889 92.0918 8.13154 92.5468 8.7084C93.0019 9.28526 93.3143 9.9897 93.4953 10.8273C93.6707 11.6648 93.7639 12.63 93.7639 13.7282V18.8922H90.0853V18.748L90.0908 18.7536ZM89.1039 14.649C88.8024 14.649 88.4241 14.6601 87.9691 14.6878C87.5141 14.7155 87.081 14.7932 86.6643 14.9152C86.2477 15.0428 85.8913 15.2314 85.5953 15.481C85.2992 15.7306 85.1567 16.0856 85.1567 16.5349C85.1567 17.023 85.3595 17.3835 85.7707 17.6165C86.1819 17.8494 86.604 17.9659 87.0536 17.9659C87.4428 17.9659 87.8211 17.9105 88.1884 17.8051C88.5502 17.6997 88.8792 17.5444 89.1642 17.3447C89.4493 17.145 89.6741 16.8954 89.8441 16.5903C90.014 16.2853 90.0962 15.9247 90.0962 15.5087C90.0962 15.0317 89.7125 14.6434 89.241 14.6434H89.1094L89.1039 14.649Z" fill="white"/>
<path d="M98.0782 0H99.6023C100.288 0 100.841 0.560222 100.841 1.25357V8.69176H100.896C101.357 8.05943 101.949 7.61569 102.672 7.35499C103.391 7.09429 104.169 6.96117 105.008 6.96117C105.934 6.96117 106.757 7.15531 107.486 7.54358C108.215 7.93185 108.835 8.4477 109.339 9.09667C109.843 9.74564 110.238 10.4889 110.512 11.3209C110.786 12.1585 110.923 13.0349 110.923 13.9501C110.923 14.9374 110.77 15.8471 110.468 16.6735C110.167 17.5 109.734 18.2155 109.174 18.8201C108.615 19.4247 107.941 19.8906 107.162 20.2235C106.378 20.5563 105.507 20.7227 104.547 20.7227C104.087 20.7227 103.648 20.6616 103.243 20.5341C102.831 20.4065 102.453 20.2456 102.108 20.046C101.762 19.8463 101.461 19.63 101.203 19.3859C100.945 19.1418 100.737 18.9033 100.578 18.6704H100.523V19.1418H96.8447V1.25357C96.8447 0.560222 97.3984 0 98.0837 0H98.0782ZM100.518 13.8447C100.518 14.832 100.797 15.6363 101.357 16.2464C101.916 16.8566 102.705 17.1616 103.72 17.1616C104.734 17.1616 105.518 16.8566 106.082 16.2464C106.642 15.6363 106.921 14.832 106.921 13.8447C106.921 12.8574 106.642 12.0531 106.082 11.4429C105.523 10.8328 104.734 10.5277 103.72 10.5277C102.705 10.5277 101.921 10.8328 101.357 11.4429C100.797 12.0531 100.518 12.8574 100.518 13.8447Z" fill="white"/>
<path d="M98.6759 21C99.893 21 100.513 20.3732 100.518 19.1474H96.8394C96.8394 20.3732 97.4643 21 98.6814 21H98.6759Z" fill="white"/>
<path d="M82.7775 10.5277C83.4134 11.2876 84.1207 11.3431 84.8662 10.7052L82.942 8.40887C82.1964 9.0523 82.1415 9.76783 82.7775 10.5222V10.5277Z" fill="white"/>
<path d="M12.8338 4.18224C13.6562 3.06734 13.5191 2.07447 12.4227 1.24246L9.92822 4.60934C11.0302 5.43581 12.006 5.29714 12.8338 4.18224Z" fill="white"/>
<path d="M18.3439 20.2346C19.6816 20.2179 20.356 19.5135 20.345 18.1656L16.2881 18.2211C16.31 19.5745 17.0063 20.2512 18.3439 20.2346Z" fill="white"/>
<path d="M50.7001 6.65611H51.6485C52.0158 6.65611 52.438 6.98891 52.438 7.44375V8.79161H52.4928C52.9259 7.97069 53.4412 7.34945 54.0388 6.93899C54.6364 6.52853 55.382 6.3233 56.2866 6.3233C56.5223 6.3233 56.758 6.3344 56.9938 6.35104C57.3611 6.37877 57.6462 6.68939 57.6462 7.06102C57.6462 7.06102 57.235 9.95088 56.7854 9.87322L56.7306 9.88986C56.6539 9.87877 56.6703 10.0119 56.5936 10.0063C56.3798 9.98416 56.1331 9.94533 55.9083 9.94533C55.1298 9.94533 54.5158 10.0563 54.0662 10.2726C53.6167 10.4945 53.2658 10.7995 53.0246 11.1934C52.7834 11.5872 52.6244 12.0586 52.5476 12.6078C52.4764 13.1569 52.438 13.7615 52.438 14.416V18.4596C52.438 19.5967 51.5279 20.5174 50.4041 20.5174C49.2802 20.5174 48.3701 19.5967 48.3701 18.4596V9.01348C48.3701 7.70999 49.4118 6.65611 50.7001 6.65611Z" fill="white"/>
<path d="M58.4029 8.17039C58.4029 6.95565 57.7944 6.33441 56.5938 6.33441V10.0119C57.7889 10.0119 58.4029 9.39067 58.4029 8.17593V8.17039Z" fill="white"/>
<path d="M50.4372 20.5396C51.7749 20.523 52.4492 19.8186 52.4383 18.4707L48.3813 18.5262C48.4033 19.8796 49.0995 20.5563 50.4372 20.5396Z" fill="white"/>
<path d="M50.3768 6.65612C49.0391 6.67276 48.3593 7.37165 48.3758 8.72506V9.46833L52.4327 8.66959C52.4108 7.31619 51.7145 6.63948 50.3768 6.65612Z" fill="white"/>
<path d="M18.2013 6.39539C16.913 6.41203 16.2661 7.08319 16.2825 8.38667L20.175 8.33121C20.153 7.03327 19.4897 6.37875 18.2013 6.39539Z" fill="white"/>
<path d="M26.9729 20.2346C28.3105 20.2179 28.9849 19.519 28.9684 18.1656L24.917 18.2211C24.9389 19.5689 25.6297 20.2512 26.9729 20.229V20.2346Z" fill="white"/>
<path d="M0.586222 15.8803C-0.301911 17.0063 -0.186783 18.038 0.920642 18.9311L3.60149 15.5253C2.48858 14.6323 1.46887 14.7544 0.586222 15.8803Z" fill="white"/>
<path d="M76.5439 20.9057C77.8651 20.9057 78.5395 20.2235 78.5449 18.8922H74.5483C74.5483 20.2235 75.2282 20.9057 76.5494 20.9057H76.5439Z" fill="white"/>
<path d="M91.9274 20.5618C93.1445 20.5618 93.764 19.935 93.7694 18.7092H90.0908C90.0908 19.935 90.7158 20.5618 91.9329 20.5618H91.9274Z" fill="white"/>
</g>
<defs>
<clipPath id="clip0_101_65">
<rect width="116" height="21" fill="white"/>
</clipPath>
</defs>
</svg>
